<svg width="80" height="80" xmlns="http://www.w3.org/2000/svg">

 <g>
  <title>background</title>
  <rect fill="none" id="canvas_background" height="82" width="82" y="-1" x="-1"/>
 </g>
 <g>
  <title>Layer 1</title>
  <path stroke="null" id="svg_2" d="m38.482372,39.736305l13.929092,24.120131c-3.746783,1.862916 -7.949255,2.941905 -12.415364,2.941905c-15.427107,0 -27.935006,-12.507899 -27.935006,-27.935006c0,-14.83698 11.580806,-26.941567 26.189068,-27.845963l0,27.845963c0,0.300301 0.078567,0.600603 0.239193,0.872969l-0.006984,0zm29.357945,-2.618907l-26.100025,0l0,-26.100025c14.028611,0.867731 25.230548,12.066176 26.100025,26.100025zm-22.609895,-3.491876l18.602968,0c-2.027034,-9.274422 -9.333784,-16.575934 -18.602968,-18.604714l0,18.604714zm10.21199,28.502435c7.069302,-4.700065 11.84095,-12.539326 12.399651,-21.518684l-24.82549,0l12.42584,21.518684z"/>
 </g>
</svg>