<?xml version="1.0" ?><!DOCTYPE svg  PUBLIC '-//W3C//DTD SVG 1.1//EN'  'http://www.w3.org/Graphics/SVG/1.1/DTD/svg11.dtd'><svg height="512px" style="enable-background:new 0 0 512 512;" version="1.1" viewBox="0 0 512 512" width="512px" xml:space="preserve" xmlns="http://www.w3.org/2000/svg" xmlns:xlink="http://www.w3.org/1999/xlink"><g id="D_-_40_x2C__Control_x2C__setting_x2C__Gear_x2C__setting"><g><path d="M139.8,189.759c23.414,0,42.462-19.048,42.462-42.462s-19.048-42.462-42.462-42.462    c-23.413,0-42.462,19.049-42.462,42.462S116.387,189.759,139.8,189.759z"/><path d="M350.646,344.087c-7.751,0-14.057,6.306-14.057,14.057s6.306,14.057,14.057,14.057c7.752,0,14.057-6.306,14.057-14.057    S358.398,344.087,350.646,344.087z"/><path d="M350.646,309.531c-26.805,0-48.611,21.808-48.611,48.612c0,26.804,21.807,48.611,48.611,48.611    s48.612-21.808,48.612-48.611C399.259,331.339,377.451,309.531,350.646,309.531z M350.646,381.571    c-12.918,0-23.428-10.51-23.428-23.428s10.51-23.428,23.428-23.428s23.428,10.51,23.428,23.428S363.564,381.571,350.646,381.571z"/><path d="M436.736,344.119c-2.092-12.866-7.184-25.303-14.725-35.966c-1.176-1.66-1.145-3.89,0.076-5.517l16.59-22.119    l-9.635-9.636l-22.074,16.555c-1.631,1.225-3.869,1.251-5.53,0.067c-10.554-7.521-22.87-12.642-35.62-14.807    c-2.008-0.341-3.564-1.94-3.854-3.957l-3.961-27.734h-13.627l-3.961,27.734c-0.289,2.017-1.846,3.616-3.854,3.957    c-12.784,2.172-24.651,7.071-35.272,14.563c-1.661,1.172-3.887,1.139-5.512-0.08l-22.758-17.068l-9.636,9.636l17.033,22.71    c1.223,1.63,1.252,3.864,0.07,5.525c-7.473,10.514-12.4,22.265-14.645,34.928c-0.354,1.993-1.947,3.534-3.951,3.82l-28.383,4.056    v13.625l28.199,4.028c2.025,0.29,3.628,1.859,3.961,3.879c2.086,12.688,6.865,24.498,14.205,35.1    c1.147,1.658,1.105,3.864-0.104,5.478l-17.155,22.873l9.636,9.636l22.61-16.958c1.644-1.231,3.896-1.25,5.559-0.046    c10.537,7.627,22.34,12.676,35.083,15.004c1.983,0.362,3.512,1.952,3.797,3.947l3.99,27.928h13.626l3.936-27.549    c0.291-2.037,1.877-3.646,3.911-3.966c12.947-2.036,24.989-6.869,35.792-14.368c1.658-1.151,3.867-1.112,5.483,0.101    l22.235,16.677l9.635-9.636l-16.48-21.974c-1.234-1.645-1.251-3.9-0.043-5.564c7.68-10.581,12.928-22.951,15.178-35.775    c0.35-1.997,1.945-3.542,3.952-3.83l27.269-3.896v-13.625l-27.084-3.869C438.67,347.716,437.066,346.142,436.736,344.119z     M350.646,416.126c-31.972,0-57.982-26.011-57.982-57.982s26.011-57.983,57.982-57.983c31.973,0,57.982,26.012,57.982,57.983    S382.619,416.126,350.646,416.126z"/><path d="M65.161,159.749c1.833,11.146,6.03,21.518,12.478,30.829c1.147,1.658,1.106,3.865-0.104,5.479l-14.894,19.858l7.861,7.861    l19.625-14.719c1.643-1.231,3.896-1.251,5.559-0.047c9.255,6.701,19.624,11.134,30.816,13.18c1.982,0.362,3.51,1.952,3.796,3.947    l3.463,24.241h11.116l3.416-23.906c0.291-2.038,1.878-3.646,3.912-3.966c11.372-1.788,21.949-6.034,31.438-12.62    c1.658-1.151,3.866-1.111,5.483,0.101l19.293,14.47l7.861-7.86l-14.298-19.063c-1.232-1.645-1.251-3.9-0.043-5.564    c6.746-9.293,11.356-20.16,13.332-31.424c0.35-1.998,1.945-3.542,3.953-3.829l23.658-3.379V142.22l-23.495-3.357    c-2.028-0.289-3.633-1.863-3.962-3.885c-1.838-11.3-6.311-22.224-12.936-31.591c-1.174-1.661-1.143-3.889,0.077-5.516    l14.394-19.192l-7.86-7.86l-19.152,14.363c-1.632,1.225-3.87,1.251-5.53,0.068c-9.27-6.606-20.088-11.104-31.286-13.006    c-2.008-0.341-3.565-1.94-3.854-3.957l-3.438-24.07h-11.117l-3.438,24.07c-0.288,2.017-1.846,3.616-3.854,3.957    c-11.228,1.907-21.651,6.211-30.981,12.792c-1.66,1.17-3.887,1.139-5.512-0.081L71.182,70.137l-7.86,7.861l14.785,19.714    c1.224,1.63,1.252,3.864,0.071,5.525c-6.565,9.235-10.892,19.557-12.863,30.679c-0.353,1.993-1.946,3.535-3.95,3.821    l-24.645,3.521v11.116l24.48,3.498C63.226,156.161,64.83,157.73,65.161,159.749z M139.8,95.464    c28.582,0,51.833,23.252,51.833,51.833c0,28.582-23.252,51.833-51.833,51.833c-28.58,0-51.833-23.251-51.833-51.833    C87.967,118.716,111.22,95.464,139.8,95.464z"/><path d="M256,471.532c-118.845,0-215.532-96.688-215.532-215.532c0-2.587-2.098-4.686-4.686-4.686    c-2.587,0-4.686,2.099-4.686,4.686c0,60.074,23.395,116.553,65.874,159.031c42.478,42.479,98.956,65.872,159.03,65.872    c2.588,0,4.686-2.098,4.686-4.686S258.588,471.532,256,471.532z"/><path d="M415.031,96.97C372.553,54.491,316.074,31.097,256,31.097c-2.588,0-4.686,2.098-4.686,4.685    c0,2.588,2.098,4.686,4.686,4.686c118.845,0,215.532,96.688,215.532,215.532c0,2.588,2.097,4.686,4.686,4.686    c2.588,0,4.686-2.098,4.686-4.686C480.903,195.926,457.51,139.448,415.031,96.97z"/><rect height="18.741" width="18.742" x="189.466" y="301.918"/><rect height="18.741" width="18.742" x="161.354" y="301.918"/><rect height="18.741" width="18.742" x="133.24" y="301.918"/><rect height="18.741" width="18.742" x="105.127" y="301.918"/><rect height="18.742" width="18.742" x="376.885" y="142.611"/><rect height="18.742" width="18.742" x="348.772" y="142.611"/><rect height="18.742" width="18.741" x="320.66" y="142.611"/><rect height="18.742" width="18.742" x="292.547" y="142.611"/></g></g><g id="Layer_1"/></svg>