<?xml version="1.0" ?><!DOCTYPE svg  PUBLIC '-//W3C//DTD SVG 1.1//EN'  'http://www.w3.org/Graphics/SVG/1.1/DTD/svg11.dtd'><svg enable-background="new 0 0 480 480" height="480px" id="Layer_1" version="1.1" viewBox="0 0 480 480" width="480px" xml:space="preserve" xmlns="http://www.w3.org/2000/svg" xmlns:xlink="http://www.w3.org/1999/xlink"><g><path d="M239.999,314.393h0.005   c34.579,0,62.873-28.293,62.873-62.877v-34.354H177.125v34.354C177.125,286.1,205.42,314.393,239.999,314.393L239.999,314.393z" fill="none" stroke="#2C3242" stroke-miterlimit="10" stroke-width="15.3601"/><path d="M209.763,217.163V162.21 M270.238,217.163   V162.21" fill="none" stroke="#2C3242" stroke-miterlimit="10" stroke-width="15.3601"/><path d="M240.005,314.391   c0,6.676,0.007,80.18-0.006,80.18c-36.752,0-70.879-13.121-97.398-34.536c-35.558-28.856-57.167-72.67-57.167-120.027   c0-85.361,69.203-154.564,154.564-154.564c85.361,0,154.564,69.203,154.564,154.564c0,85.361-69.202,154.563-154.563,154.563" fill="none" stroke="#2C3242" stroke-miterlimit="10" stroke-width="15.3601"/></g></svg>