<?xml version="1.0" ?><!DOCTYPE svg  PUBLIC '-//W3C//DTD SVG 1.1//EN'  'http://www.w3.org/Graphics/SVG/1.1/DTD/svg11.dtd'><svg height="92.001px" id="Capa_1" style="enable-background:new 0 0 92 92.001;" version="1.1" viewBox="0 0 92 92.001" width="92px" xml:space="preserve" xmlns="http://www.w3.org/2000/svg" xmlns:xlink="http://www.w3.org/1999/xlink"><path d="M22.366,30.569c1.004,0,1.974,0.152,2.887,0.434c3.448-3.864,7.271-7.379,11.411-10.5c-0.173-0.731-0.275-1.489-0.275-2.274  c0-1.084,0.184-2.125,0.51-3.1c-4.637-3.328-9.682-6.12-15.047-8.279c-5.031,3.109-9.418,7.162-12.914,11.912  c2.596,4.596,5.682,8.883,9.189,12.784C19.411,30.926,20.846,30.569,22.366,30.569z M12.579,40.355c0-1.374,0.287-2.682,0.798-3.868  c-3.142-3.448-5.986-7.17-8.479-11.135C1.771,31.562,0,38.572,0,45.999c0,8.602,2.366,16.647,6.476,23.533  c1.468-8.277,4.254-16.096,8.103-23.268C13.328,44.622,12.579,42.579,12.579,40.355z M46.176,8.441c2.585,0,4.929,1.009,6.678,2.646  c5.106-2.197,10.484-3.881,16.078-4.958C62.179,2.238,54.353,0,45.999,0C40.305,0,34.854,1.043,29.82,2.936  c3.996,1.972,7.803,4.276,11.385,6.873C42.663,8.945,44.359,8.441,46.176,8.441z M60.812,54.538  c0.609-1.268,1.474-2.389,2.543-3.281c-2.888-8.891-7.465-17.021-13.359-24.016c-1.173,0.498-2.464,0.774-3.82,0.774  c-2.123,0-4.082-0.684-5.686-1.832c-3.547,2.696-6.83,5.719-9.815,9.018c0.932,1.497,1.479,3.261,1.479,5.154  c0,1.023-0.158,2.007-0.448,2.933C40.29,49.024,50.169,52.956,60.812,54.538z M73.506,67.749c0.135,1.853,0.206,3.723,0.206,5.609  c0,3.321-0.212,6.592-0.612,9.805c7.799-5.698,13.74-13.787,16.734-23.193c-3.547,0.858-7.188,1.471-10.902,1.828  C78.059,64.476,76.066,66.643,73.506,67.749z M58.518,61.116c-11.354-1.881-21.883-6.213-31.046-12.421  c-1.487,0.912-3.232,1.449-5.105,1.449c-0.688,0-1.358-0.073-2.007-0.208c-4.387,8.317-7.19,17.593-7.996,27.428  c4.38,4.696,9.724,8.479,15.727,11.019C35.543,76.921,45.963,67.44,58.518,61.116z M76.879,11.906  c-7.371,0.711-14.412,2.561-20.967,5.342c0.035,0.323,0.051,0.649,0.051,0.98c0,1.545-0.368,3.001-1.005,4.301  c6.548,7.688,11.635,16.648,14.846,26.456c3.979,0.071,7.382,2.509,8.845,5.971c4.428-0.449,8.74-1.296,12.894-2.518  C91.837,50.334,92,48.187,92,45.999C92,32.479,86.166,20.322,76.879,11.906z M63.442,66.345  c-11.72,5.49-21.519,13.945-28.616,24.282c3.577,0.893,7.318,1.374,11.173,1.374c6.939,0,13.514-1.546,19.413-4.297  c0.948-4.637,1.45-9.433,1.45-14.346c0-1.775-0.08-3.532-0.213-5.273C65.467,67.706,64.383,67.112,63.442,66.345z"/><g/><g/><g/><g/><g/><g/><g/><g/><g/><g/><g/><g/><g/><g/><g/></svg>