<svg height="92.001" viewBox="0 0 92 92.001" width="92" xmlns="http://www.w3.org/2000/svg"><path d="M22.366 30.569a9.77 9.77 0 012.887.434 79.135 79.135 0 0111.411-10.5 9.845 9.845 0 01-.275-2.274c0-1.084.184-2.125.51-3.1A71.754 71.754 0 0021.852 6.85 46.211 46.211 0 008.938 18.762a72.35 72.35 0 009.189 12.784 9.72 9.72 0 014.239-.977zm-9.787 9.786c0-1.374.287-2.682.798-3.868a78.865 78.865 0 01-8.479-11.135A45.774 45.774 0 000 45.999a45.763 45.763 0 006.476 23.533c1.468-8.277 4.254-16.096 8.103-23.268a9.712 9.712 0 01-2-5.909zM46.176 8.441a9.74 9.74 0 016.678 2.646 77.948 77.948 0 0116.078-4.958A45.786 45.786 0 0045.999 0 45.871 45.871 0 0029.82 2.936a78.846 78.846 0 0111.385 6.873 9.717 9.717 0 014.971-1.368zm14.636 46.097a9.783 9.783 0 012.543-3.281 71.605 71.605 0 00-13.359-24.016 9.752 9.752 0 01-3.82.774 9.734 9.734 0 01-5.686-1.832 72 72 0 00-9.815 9.018 9.721 9.721 0 011.479 5.154 9.793 9.793 0 01-.448 2.933 71.159 71.159 0 0029.106 11.25zm12.694 13.211a77.17 77.17 0 01.206 5.609c0 3.321-.212 6.592-.612 9.805 7.799-5.698 13.74-13.787 16.734-23.193a78.168 78.168 0 01-10.902 1.828 9.808 9.808 0 01-5.426 5.951zm-14.988-6.633c-11.354-1.881-21.883-6.213-31.046-12.421a9.733 9.733 0 01-7.112 1.241 71.15 71.15 0 00-7.996 27.428 46.08 46.08 0 0015.727 11.019 78.293 78.293 0 0130.427-27.267zm18.361-49.21a71.102 71.102 0 00-20.967 5.342 9.743 9.743 0 01-.954 5.281 78.45 78.45 0 0114.846 26.456 9.79 9.79 0 018.845 5.971 71.072 71.072 0 0012.894-2.518c.294-2.104.457-4.251.457-6.439 0-13.52-5.834-25.677-15.121-34.093zM63.442 66.345a71.461 71.461 0 00-28.616 24.282 46.069 46.069 0 0011.173 1.374 45.807 45.807 0 0019.413-4.297 71.553 71.553 0 001.45-14.346c0-1.775-.08-3.532-.213-5.273a9.817 9.817 0 01-3.207-1.74z"/></svg>