<svg height="512" viewBox="0 0 512 512" width="512" xmlns="http://www.w3.org/2000/svg"><path d="M139.8 189.759c23.414 0 42.462-19.048 42.462-42.462s-19.048-42.462-42.462-42.462c-23.413 0-42.462 19.049-42.462 42.462s19.049 42.462 42.462 42.462zm210.846 154.328c-7.751 0-14.057 6.306-14.057 14.057s6.306 14.057 14.057 14.057c7.752 0 14.057-6.306 14.057-14.057s-6.305-14.057-14.057-14.057z"/><path d="M350.646 309.531c-26.805 0-48.611 21.808-48.611 48.612 0 26.804 21.807 48.611 48.611 48.611s48.612-21.808 48.612-48.611c.001-26.804-21.807-48.612-48.612-48.612zm0 72.04c-12.918 0-23.428-10.51-23.428-23.428s10.51-23.428 23.428-23.428 23.428 10.51 23.428 23.428-10.51 23.428-23.428 23.428z"/><path d="M436.736 344.119c-2.092-12.866-7.184-25.303-14.725-35.966a4.683 4.683 0 01.076-5.517l16.59-22.119-9.635-9.636-22.074 16.555a4.683 4.683 0 01-5.53.067c-10.554-7.521-22.87-12.642-35.62-14.807a4.687 4.687 0 01-3.854-3.957l-3.961-27.734h-13.627l-3.961 27.734a4.686 4.686 0 01-3.854 3.957c-12.784 2.172-24.651 7.071-35.272 14.563a4.684 4.684 0 01-5.512-.08l-22.758-17.068-9.636 9.636 17.033 22.71a4.682 4.682 0 01.07 5.525c-7.473 10.514-12.4 22.265-14.645 34.928a4.686 4.686 0 01-3.951 3.82l-28.383 4.056v13.625l28.199 4.028a4.688 4.688 0 013.961 3.879c2.086 12.688 6.865 24.498 14.205 35.1a4.688 4.688 0 01-.104 5.478l-17.155 22.873 9.636 9.636 22.61-16.958a4.687 4.687 0 015.559-.046c10.537 7.627 22.34 12.676 35.083 15.004a4.686 4.686 0 013.797 3.947l3.99 27.928h13.626l3.936-27.549a4.686 4.686 0 013.911-3.966c12.947-2.036 24.989-6.869 35.792-14.368a4.683 4.683 0 015.483.101l22.235 16.677 9.635-9.636-16.48-21.974a4.684 4.684 0 01-.043-5.564c7.68-10.581 12.928-22.951 15.178-35.775a4.688 4.688 0 013.952-3.83l27.269-3.896v-13.625l-27.084-3.869a4.687 4.687 0 01-3.962-3.887zm-86.09 72.007c-31.972 0-57.982-26.011-57.982-57.982s26.011-57.983 57.982-57.983c31.973 0 57.982 26.012 57.982 57.983s-26.009 57.982-57.982 57.982zM65.161 159.749c1.833 11.146 6.03 21.518 12.478 30.829a4.688 4.688 0 01-.104 5.479l-14.894 19.858 7.861 7.861 19.625-14.719a4.687 4.687 0 015.559-.047c9.255 6.701 19.624 11.134 30.816 13.18a4.687 4.687 0 013.796 3.947l3.463 24.241h11.116l3.416-23.906a4.686 4.686 0 013.912-3.966c11.372-1.788 21.949-6.034 31.438-12.62a4.685 4.685 0 015.483.101l19.293 14.47 7.861-7.86-14.298-19.063a4.687 4.687 0 01-.043-5.564c6.746-9.293 11.356-20.16 13.332-31.424a4.684 4.684 0 013.953-3.829l23.658-3.379V142.22l-23.495-3.357a4.684 4.684 0 01-3.962-3.885c-1.838-11.3-6.311-22.224-12.936-31.591a4.686 4.686 0 01.077-5.516l14.394-19.192-7.86-7.86-19.152 14.363a4.685 4.685 0 01-5.53.068c-9.27-6.606-20.088-11.104-31.286-13.006a4.686 4.686 0 01-3.854-3.957l-3.438-24.07h-11.117l-3.438 24.07a4.685 4.685 0 01-3.854 3.957c-11.228 1.907-21.651 6.211-30.981 12.792a4.686 4.686 0 01-5.512-.081L71.182 70.137l-7.86 7.861 14.785 19.714a4.682 4.682 0 01.071 5.525c-6.565 9.235-10.892 19.557-12.863 30.679a4.685 4.685 0 01-3.95 3.821l-24.645 3.521v11.116l24.48 3.498a4.682 4.682 0 013.961 3.877zM139.8 95.464c28.582 0 51.833 23.252 51.833 51.833 0 28.582-23.252 51.833-51.833 51.833-28.58 0-51.833-23.251-51.833-51.833 0-28.581 23.253-51.833 51.833-51.833zM256 471.532c-118.845 0-215.532-96.688-215.532-215.532a4.687 4.687 0 00-9.372 0c0 60.074 23.395 116.553 65.874 159.031 42.478 42.479 98.956 65.872 159.03 65.872a4.686 4.686 0 000-9.371zM415.031 96.97C372.553 54.491 316.074 31.097 256 31.097a4.686 4.686 0 100 9.371c118.845 0 215.532 96.688 215.532 215.532a4.685 4.685 0 109.372 0c-.001-60.074-23.394-116.552-65.873-159.03zM189.466 301.918h18.742v18.741h-18.742zm-28.112 0h18.742v18.741h-18.742zm-28.114 0h18.742v18.741H133.24z"/><path d="M105.127 301.918h18.742v18.741h-18.742zm271.758-159.307h18.742v18.742h-18.742zm-28.113 0h18.742v18.742h-18.742zm-28.112 0h18.741v18.742H320.66zm-28.113 0h18.742v18.742h-18.742z"/></svg>