<svg height="480" viewBox="0 0 480 480" width="480" xmlns="http://www.w3.org/2000/svg"><g fill="none" stroke="#2C3242" stroke-miterlimit="10" stroke-width="15.36"><path d="M239.999 314.393h.005c34.579 0 62.873-28.293 62.873-62.877v-34.354H177.125v34.354c0 34.584 28.295 62.877 62.874 62.877h0zm-30.236-97.23V162.21m60.475 54.953V162.21"/><path d="M240.005 314.391c0 6.676.007 80.18-.006 80.18-36.752 0-70.879-13.121-97.398-34.536-35.558-28.856-57.167-72.67-57.167-120.027 0-85.361 69.203-154.564 154.564-154.564 85.361 0 154.564 69.203 154.564 154.564 0 85.361-69.202 154.563-154.563 154.563"/></g></svg>