<svg xmlns="http://www.w3.org/2000/svg" viewBox="0 0 66 66"><path d="M64 32h-2.9C60.6 17.3 48.7 5.4 34 4.9V2c0-.6-.4-1-1-1s-1 .4-1 1v2.9C17.3 5.4 5.4 17.3 4.9 32H2c-.6 0-1 .4-1 1s.4 1 1 1h2.9C5.4 48.7 17.3 60.6 32 61.1V64c0 .6.4 1 1 1s1-.4 1-1v-2.9c14.7-.5 26.6-12.4 27.1-27.1H64c.6 0 1-.4 1-1s-.4-1-1-1zM34 59.1v-2.9c0-.6-.4-1-1-1s-1 .4-1 1v2.9C18.4 58.6 7.4 47.6 6.9 34h2.9c.6 0 1-.4 1-1s-.4-1-1-1H6.9C7.4 18.4 18.4 7.4 32 6.9v2.9c0 .6.4 1 1 1s1-.4 1-1V6.9c13.6.5 24.6 11.5 25.1 25.1h-2.9c-.6 0-1 .4-1 1s.4 1 1 1h2.9C58.6 47.6 47.6 58.6 34 59.1z"/><path d="M26.9 17c1.3 0 2.6.6 3.5 1.6-2.2 1-3.5 3.3-3.6 5.6-.2 2.9 1.9 5.4 6.1 5.4 4.5 0 6.2-2.2 6.2-5 0-2.6-1.5-5-3.6-6 .9-1 2.2-1.5 3.5-1.5.5 0 1-.5 1-1 0-.6-.5-1-1-1-2.2 0-4.3 1.1-5.6 3h-.9c-1.3-1.9-3.4-3-5.6-3-.6 0-1 .4-1 1 0 .5.5.9 1 .9z"/><path d="M47.5 39.8c.3.5.9.6 1.4.3.5-.3.6-.9.3-1.4L47 35c-.2-.3-.5-.5-.9-.5h-2.7c-.5-2.4-1.7-4.6-3.2-6.3-1.5 2.5-4.3 3.3-7.2 3.3-3 0-5.4-.7-7-3.4-1.6 1.7-2.8 3.9-3.3 6.4H20c-.3 0-.7.2-.8.5l-2.3 3.8c-.3.5-.1 1.1.3 1.4.5.3 1.1.1 1.4-.3l2-3.3h1.8c0 .5-.1 1-.1 1.4 0 1.5.2 3 .6 4.3H20c-.3 0-.7.2-.8.5l-2.3 3.8c-.3.5-.1 1.1.3 1.4.5.3 1.1.1 1.4-.3l2-3.3h3.1c1.9 4 5.4 6.7 9.5 6.7s7.6-2.7 9.5-6.7h3.1l2 3.3c.3.5.9.6 1.4.3.5-.3.6-.9.3-1.4L47 42.8c-.2-.3-.5-.5-.9-.5h-2.9c.4-1.4.6-2.8.6-4.3 0-.5 0-1-.1-1.4h1.8l2 3.2z"/></svg>